{"asset":{"version":"2.0","generator":"babylon.js glTF exporter for 3dsmax 2018 v20200527.2"},"scene":0,"scenes":[{"nodes":[0,1,2,3,7,8,9,10,11,12,13,14,15,16,20,21,26]}],"nodes":[{"mesh":0,"translation":[26.1361313,-8.087856,-0.6267304],"scale":[86.914856,20.1711941,86.914856],"name":"Obj3d66-447048-6-706"},{"mesh":1,"translation":[-0.08652149,-8.237123,-0.6267304],"scale":[86.914856,20.1711941,86.914856],"name":"Obj3d66-447048-5-814"},{"mesh":2,"translation":[1.845884,-8.144301,1.24337769],"rotation":[-0.4427097,-0.543390334,0.509167,-0.499483734],"scale":[14.4732628,-15.6651983,14.473279],"name":"Archmodels55_01_black3"},{"children":[4,5,6],"translation":[1.2088666,-2.3822248,8.988503],"rotation":[0.0139898406,0.40593493,0.913794458,-0.000916484336],"scale":[14.999733,14.9997253,14.9997234],"name":"右轮胎"},{"mesh":3,"translation":[-0.0130497133,-0.3815744,0.5574904],"rotation":[0.521333754,-0.477714777,0.521333933,0.477714062],"scale":[2.53832483,-2.53832245,2.53832221],"name":"右轮胎002"},{"mesh":4,"translation":[-0.0278350767,-0.381574333,0.5574903],"rotation":[-0.5213338,0.477714777,-0.521333456,-0.477714568],"scale":[2.53832531,2.53832483,2.53832436],"name":"右轮胎001"},{"mesh":5,"translation":[-0.0276645832,-0.381574333,0.5574904],"rotation":[0.521333754,-0.477714777,0.521333933,0.477714062],"scale":[2.53832483,-2.53832245,2.53832221],"name":"右轮胎 (1)"},{"mesh":6,"translation":[0.5599974,-2.77396417,2.31635952],"rotation":[0.4819377,0.49727115,-0.4060057,0.5963361],"scale":[14.4732676,-15.665205,14.4732866],"name":"脚踏板2"},{"mesh":7,"translation":[1.5067153,-8.209875,0.7015752],"rotation":[-0.4427097,-0.543390453,0.509167,-0.499483675],"scale":[38.07418,-38.0741463,38.0741463],"name":"Archmodels55_01_chrome2"},{"mesh":8,"translation":[1.72360456,-8.170852,0.6767001],"rotation":[-0.4427096,-0.543390453,0.509167,-0.4994838],"scale":[38.0741768,38.0741463,38.07417],"name":"Archmodels55_01_chrome"},{"mesh":9,"translation":[1.842569,-8.149017,0.71812284],"rotation":[-0.442709863,-0.543390453,0.5091668,-0.499483734],"scale":[14.4732723,15.6652117,14.47327],"name":"Archmodels55_01_carpaint"},{"mesh":10,"translation":[1.198124,-8.229267,5.3411293],"rotation":[0.06282468,-0.178477392,0.981341064,-0.0341854841],"scale":[38.0741768,-38.0742073,38.0742073],"name":"Archmodels55_01_chain"},{"mesh":11,"translation":[1.41297543,-8.271362,-4.975231],"rotation":[-0.4427094,-0.543390453,0.509167254,-0.4994838],"scale":[38.07419,38.07413,38.07414],"name":"Archmodels55_01_black5"},{"mesh":12,"translation":[2.028768,-8.104289,2.128267],"rotation":[-0.4427096,-0.5433903,0.509167135,-0.4994838],"scale":[38.07419,-38.0741653,38.0741463],"name":"Archmodels55_01_black4"},{"mesh":13,"translation":[1.6598537,-8.187639,0.00662442064],"rotation":[-0.4427097,-0.543390334,0.509167,-0.499483734],"scale":[14.4732628,-15.6651983,14.473279],"name":"Archmodels55_01_black2"},{"mesh":14,"translation":[1.72110534,-8.171304,0.6769775],"rotation":[-0.4427096,-0.5433903,0.509167135,-0.4994838],"scale":[38.07419,-38.0741653,38.0741463],"name":"Archmodels55_01_black"},{"children":[17,18,19],"translation":[-0.45950222,-2.74048114,-7.64967442],"rotation":[0.0548489131,-0.97075367,-0.027324738,0.232125491],"scale":[14.99972,14.9997234,14.9997339],"name":"做轮胎"},{"mesh":15,"translation":[-0.00157254038,-0.386424571,-0.5574905],"rotation":[0.521333754,-0.477714777,0.521333933,0.4777141],"scale":[2.53832483,-2.53832221,2.53832245],"name":"轮胎3"},{"mesh":16,"translation":[-0.01635788,-0.386424631,-0.557490647],"rotation":[-0.5213337,0.477714717,-0.521333635,-0.4777145],"scale":[2.538325,2.538323,2.53832483],"name":"轮胎2"},{"mesh":17,"translation":[-0.01618744,-0.386424571,-0.557490647],"rotation":[0.521333754,-0.477714777,0.521333933,0.4777141],"scale":[2.53832483,-2.53832221,2.53832245],"name":"轮胎"},{"mesh":18,"translation":[1.6598537,-8.187639,0.00662442064],"rotation":[-0.4427097,-0.543390334,0.509167,-0.499483734],"scale":[14.4732666,-15.6652021,14.4732809],"name":"对象001"},{"children":[22,23,24,25],"translation":[-1.08952451,5.805522,-4.711126],"scale":[14.9997244,14.9997244,14.9997244],"name":"组001"},{"mesh":19,"translation":[0.183294967,-0.932894349,0.3145229],"rotation":[-0.4427101,-0.543389738,0.5091672,-0.4994839],"scale":[0.9649022,-1.04436553,0.9649029],"name":"把手"},{"mesh":20,"translation":[0.187378451,-0.9318051,0.3592142],"rotation":[-0.442709953,-0.5433901,0.5091673,-0.499483526],"scale":[2.53832483,-2.53832436,2.53832388],"name":"把手2"},{"mesh":21,"translation":[0.187545359,-0.9317748,0.359195352],"rotation":[-0.442709357,-0.5433904,0.5091672,-0.499483734],"scale":[2.53832555,2.53832245,2.53832364],"name":"把手003"},{"mesh":22,"translation":[0.2078898,-0.9273376,0.455968261],"rotation":[-0.442709953,-0.5433901,0.5091673,-0.499483526],"scale":[2.53832483,-2.53832436,2.53832388],"name":"把手的线"},{"name":"Default light"}],"meshes":[{"primitives":[{"attributes":{"POSITION":1,"NORMAL":2,"TEXCOORD_0":3},"indices":0,"material":0}],"name":"Obj3d66-447048-6-706"},{"primitives":[{"attributes":{"POSITION":5,"NORMAL":6,"TEXCOORD_0":7},"indices":4,"material":1}],"name":"Obj3d66-447048-5-814"},{"primitives":[{"attributes":{"POSITION":9,"NORMAL":10,"TEXCOORD_0":11},"indices":8,"material":2}],"name":"Archmodels55_01_black3"},{"primitives":[{"attributes":{"POSITION":13,"NORMAL":14,"TEXCOORD_0":15},"indices":12,"material":3}],"name":"右轮胎002"},{"primitives":[{"attributes":{"POSITION":17,"NORMAL":18,"TEXCOORD_0":19},"indices":16,"material":3}],"name":"右轮胎001"},{"primitives":[{"attributes":{"POSITION":21,"NORMAL":22,"TEXCOORD_0":23},"indices":20,"material":3}],"name":"右轮胎"},{"primitives":[{"attributes":{"POSITION":25,"NORMAL":26,"TEXCOORD_0":27},"indices":24,"material":2}],"name":"脚踏板2"},{"primitives":[{"attributes":{"POSITION":29,"NORMAL":30,"TEXCOORD_0":31},"indices":28,"material":3}],"name":"Archmodels55_01_chrome2"},{"primitives":[{"attributes":{"POSITION":33,"NORMAL":34,"TEXCOORD_0":35},"indices":32,"material":4}],"name":"Archmodels55_01_chrome"},{"primitives":[{"attributes":{"POSITION":37,"NORMAL":38,"TEXCOORD_0":39},"indices":36,"material":5}],"name":"Archmodels55_01_carpaint"},{"primitives":[{"attributes":{"POSITION":41,"NORMAL":42,"TEXCOORD_0":43},"indices":40,"material":2}],"name":"Archmodels55_01_chain"},{"primitives":[{"attributes":{"POSITION":45,"NORMAL":46,"TEXCOORD_0":47},"indices":44}],"name":"Archmodels55_01_black5"},{"primitives":[{"attributes":{"POSITION":49,"NORMAL":50},"indices":48}],"name":"Archmodels55_01_black4"},{"primitives":[{"attributes":{"POSITION":52,"NORMAL":53,"TEXCOORD_0":54},"indices":51,"material":3}],"name":"Archmodels55_01_black2"},{"primitives":[{"attributes":{"POSITION":56,"NORMAL":57,"TEXCOORD_0":58},"indices":55,"material":2}],"name":"Archmodels55_01_black"},{"primitives":[{"attributes":{"POSITION":60,"NORMAL":61,"TEXCOORD_0":62},"indices":59,"material":3}],"name":"轮胎3"},{"primitives":[{"attributes":{"POSITION":64,"NORMAL":65,"TEXCOORD_0":66},"indices":63,"material":3}],"name":"轮胎2"},{"primitives":[{"attributes":{"POSITION":68,"NORMAL":69,"TEXCOORD_0":70},"indices":67,"material":3}],"name":"轮胎"},{"primitives":[{"attributes":{"POSITION":72,"NORMAL":73,"TEXCOORD_0":74},"indices":71,"material":4}],"name":"对象001"},{"primitives":[{"attributes":{"POSITION":76,"NORMAL":77,"TEXCOORD_0":78},"indices":75}],"name":"把手"},{"primitives":[{"attributes":{"POSITION":80,"NORMAL":81,"TEXCOORD_0":82},"indices":79,"material":3}],"name":"把手2"},{"primitives":[{"attributes":{"POSITION":84,"NORMAL":85,"TEXCOORD_0":86},"indices":83,"material":3}],"name":"把手003"},{"primitives":[{"attributes":{"POSITION":88,"NORMAL":89},"indices":87}],"name":"把手的线"}],"accessors":[{"bufferView":0,"componentType":5123,"count":888,"type":"SCALAR","name":"accessorIndices"},{"bufferView":1,"componentType":5126,"count":888,"max":[-0.23242189,0.008600001,0.219999984],"min":[-0.370985866,-0.0234000012,-0.22],"type":"VEC3","name":"accessorPositions"},{"bufferView":1,"byteOffset":10656,"componentType":5126,"count":888,"type":"VEC3","name":"accessorNormals"},{"bufferView":2,"componentType":5126,"count":888,"type":"VEC2","name":"accessorUVs"},{"bufferView":0,"byteOffset":1776,"componentType":5123,"count":888,"type":"SCALAR","name":"accessorIndices"},{"bufferView":1,"byteOffset":21312,"componentType":5126,"count":888,"max":[0.138563976,0.016,0.09999997],"min":[-0.138563484,-0.016,-0.1],"type":"VEC3","name":"accessorPositions"},{"bufferView":1,"byteOffset":31968,"componentType":5126,"count":888,"type":"VEC3","name":"accessorNormals"},{"bufferView":2,"byteOffset":7104,"componentType":5126,"count":888,"type":"VEC2","name":"accessorUVs"},{"bufferView":0,"byteOffset":3552,"componentType":5123,"count":17076,"type":"SCALAR","name":"accessorIndices"},{"bufferView":1,"byteOffset":42624,"componentType":5126,"count":17076,"max":[0.5657579,0.13205491,-0.293953747],"min":[-0.5657579,-0.02506917,-1.0868963],"type":"VEC3","name":"accessorPositions"},{"bufferView":1,"byteOffset":247536,"componentType":5126,"count":17076,"type":"VEC3","name":"accessorNormals"},{"bufferView":2,"byteOffset":14208,"componentType":5126,"count":17076,"type":"VEC2","name":"accessorUVs"},{"bufferView":0,"byteOffset":37704,"componentType":5123,"count":6090,"type":"SCALAR","name":"accessorIndices"},{"bufferView":1,"byteOffset":452448,"componentType":5126,"count":6090,"max":[-0.103372373,0.0209466182,-0.0334277749],"min":[-0.33588624,0.006824908,-0.26594165],"type":"VEC3","name":"accessorPositions"},{"bufferView":1,"byteOffset":525528,"componentType":5126,"count":6090,"type":"VEC3","name":"accessorNormals"},{"bufferView":2,"byteOffset":150816,"componentType":5126,"count":6090,"type":"VEC2","name":"accessorUVs"},{"bufferView":0,"byteOffset":49884,"componentType":5123,"count":19602,"type":"SCALAR","name":"accessorIndices"},{"bufferView":1,"byteOffset":598608,"componentType":5126,"count":19602,"max":[-0.099550575,-0.007904316,-0.0290983282],"min":[-0.33970806,-0.05048169,-0.269255847],"type":"VEC3","name":"accessorPositions"},{"bufferView":1,"byteOffset":833832,"componentType":5126,"count":19602,"type":"VEC3","name":"accessorNormals"},{"bufferView":2,"byteOffset":199536,"componentType":5126,"count":19602,"type":"VEC2","name":"accessorUVs"},{"bufferView":0,"byteOffset":89088,"componentType":5125,"count":120192,"type":"SCALAR","name":"accessorIndices"},{"bufferView":1,"byteOffset":1069056,"componentType":5126,"count":120192,"max":[-0.0809502,0.0315396227,-0.0105038],"min":[-0.358308375,0.007703339,-0.287861973],"type":"VEC3","name":"accessorPositions"},{"bufferView":1,"byteOffset":2511360,"componentType":5126,"count":120192,"type":"VEC3","name":"accessorNormals"},{"bufferView":2,"byteOffset":356352,"componentType":5126,"count":120192,"type":"VEC2","name":"accessorUVs"},{"bufferView":0,"byteOffset":569856,"componentType":5123,"count":36054,"type":"SCALAR","name":"accessorIndices"},{"bufferView":1,"byteOffset":3953664,"componentType":5126,"count":36054,"max":[0.1593067,0.151507214,0.150044128],"min":[-0.156854525,-0.16372101,-0.309446245],"type":"VEC3","name":"accessorPositions"},{"bufferView":1,"byteOffset":4386312,"componentType":5126,"count":36054,"type":"VEC3","name":"accessorNormals"},{"bufferView":2,"byteOffset":1317888,"componentType":5126,"count":36054,"type":"VEC2","name":"accessorUVs"},{"bufferView":0,"byteOffset":641964,"componentType":5123,"count":54528,"type":"SCALAR","name":"accessorIndices"},{"bufferView":1,"byteOffset":4818960,"componentType":5126,"count":54528,"max":[0.3331398,0.0477198139,-0.03617409],"min":[-0.333139926,-0.0161100365,-0.327873439],"type":"VEC3","name":"accessorPositions"},{"bufferView":1,"byteOffset":5473296,"componentType":5126,"count":54528,"type":"VEC3","name":"accessorNormals"},{"bufferView":2,"byteOffset":1606320,"componentType":5126,"count":54528,"type":"VEC2","name":"accessorUVs"},{"bufferView":0,"byteOffset":751020,"componentType":5123,"count":33666,"type":"SCALAR","name":"accessorIndices"},{"bufferView":1,"byteOffset":6127632,"componentType":5126,"count":33666,"max":[0.2006499,0.0105443178,-0.132753208],"min":[-0.1731837,-0.04992085,-0.40395537],"type":"VEC3","name":"accessorPositions"},{"bufferView":1,"byteOffset":6531624,"componentType":5126,"count":33666,"type":"VEC3","name":"accessorNormals"},{"bufferView":2,"byteOffset":2042544,"componentType":5126,"count":33666,"type":"VEC2","name":"accessorUVs"},{"bufferView":0,"byteOffset":818352,"componentType":5125,"count":104442,"type":"SCALAR","name":"accessorIndices"},{"bufferView":1,"byteOffset":6935616,"componentType":5126,"count":104442,"max":[0.601032138,0.0263523571,-0.34678477],"min":[-0.6010321,-0.136807054,-1.01969159],"type":"VEC3","name":"accessorPositions"},{"bufferView":1,"byteOffset":8188920,"componentType":5126,"count":104442,"type":"VEC3","name":"accessorNormals"},{"bufferView":2,"byteOffset":2311872,"componentType":5126,"count":104442,"type":"VEC2","name":"accessorUVs"},{"bufferView":0,"byteOffset":1236120,"componentType":5123,"count":40536,"type":"SCALAR","name":"accessorIndices"},{"bufferView":1,"byteOffset":9442224,"componentType":5126,"count":40536,"max":[0.0141451377,0.189980835,0.06340597],"min":[0.0100909639,0.0670351163,-0.166782722],"type":"VEC3","name":"accessorPositions"},{"bufferView":1,"byteOffset":9928656,"componentType":5126,"count":40536,"type":"VEC3","name":"accessorNormals"},{"bufferView":2,"byteOffset":3147408,"componentType":5126,"count":40536,"type":"VEC2","name":"accessorUVs"},{"bufferView":0,"byteOffset":1317192,"componentType":5123,"count":1512,"type":"SCALAR","name":"accessorIndices"},{"bufferView":1,"byteOffset":10415088,"componentType":5126,"count":1512,"max":[0.00644216174,0.00274808425,-0.314619958],"min":[-0.00644216174,-0.05848692,-0.322479129],"type":"VEC3","name":"accessorPositions"},{"bufferView":1,"byteOffset":10433232,"componentType":5126,"count":1512,"type":"VEC3","name":"accessorNormals"},{"bufferView":2,"byteOffset":3471696,"componentType":5126,"count":1512,"type":"VEC2","name":"accessorUVs"},{"bufferView":0,"byteOffset":1320216,"componentType":5123,"count":5412,"type":"SCALAR","name":"accessorIndices"},{"bufferView":1,"byteOffset":10451376,"componentType":5126,"count":5412,"max":[-0.02639879,0.0568416938,-0.111099429],"min":[-0.22215718,-0.00042793277,-0.3229602],"type":"VEC3","name":"accessorPositions"},{"bufferView":1,"byteOffset":10516320,"componentType":5126,"count":5412,"type":"VEC3","name":"accessorNormals"},{"bufferView":0,"byteOffset":1331040,"componentType":5123,"count":13032,"type":"SCALAR","name":"accessorIndices"},{"bufferView":1,"byteOffset":10581264,"componentType":5126,"count":13032,"max":[0.422983676,0.12824221,-0.04960584],"min":[-0.412952423,-0.151981741,-1.08979547],"type":"VEC3","name":"accessorPositions"},{"bufferView":1,"byteOffset":10737648,"componentType":5126,"count":13032,"type":"VEC3","name":"accessorNormals"},{"bufferView":2,"byteOffset":3483792,"componentType":5126,"count":13032,"type":"VEC2","name":"accessorUVs"},{"bufferView":0,"byteOffset":1357104,"componentType":5123,"count":4104,"type":"SCALAR","name":"accessorIndices"},{"bufferView":1,"byteOffset":10894032,"componentType":5126,"count":4104,"max":[-0.07020417,0.0503604449,-0.399158031],"min":[-0.1869931,-0.0112354718,-0.420422584],"type":"VEC3","name":"accessorPositions"},{"bufferView":1,"byteOffset":10943280,"componentType":5126,"count":4104,"type":"VEC3","name":"accessorNormals"},{"bufferView":2,"byteOffset":3588048,"componentType":5126,"count":4104,"type":"VEC2","name":"accessorUVs"},{"bufferView":0,"byteOffset":1365312,"componentType":5123,"count":5760,"type":"SCALAR","name":"accessorIndices"},{"bufferView":1,"byteOffset":10992528,"componentType":5126,"count":5760,"max":[0.3358862,0.0209465753,-0.0353460722],"min":[0.103372291,0.0068248664,-0.267859936],"type":"VEC3","name":"accessorPositions"},{"bufferView":1,"byteOffset":11061648,"componentType":5126,"count":5760,"type":"VEC3","name":"accessorNormals"},{"bufferView":2,"byteOffset":3620880,"componentType":5126,"count":5760,"type":"VEC2","name":"accessorUVs"},{"bufferView":0,"byteOffset":1376832,"componentType":5123,"count":12540,"type":"SCALAR","name":"accessorIndices"},{"bufferView":1,"byteOffset":11130768,"componentType":5126,"count":12540,"max":[0.339707971,-0.00790435448,-0.0310166329],"min":[0.0995504856,-0.03147221,-0.2711741],"type":"VEC3","name":"accessorPositions"},{"bufferView":1,"byteOffset":11281248,"componentType":5126,"count":12540,"type":"VEC3","name":"accessorNormals"},{"bufferView":2,"byteOffset":3666960,"componentType":5126,"count":12540,"type":"VEC2","name":"accessorUVs"},{"bufferView":0,"byteOffset":1401912,"componentType":5125,"count":120192,"type":"SCALAR","name":"accessorIndices"},{"bufferView":1,"byteOffset":11431728,"componentType":5126,"count":120192,"max":[0.358308375,0.031539578,-0.0124220736],"min":[0.0809502,0.00770329544,-0.2897803],"type":"VEC3","name":"accessorPositions"},{"bufferView":1,"byteOffset":12874032,"componentType":5126,"count":120192,"type":"VEC3","name":"accessorNormals"},{"bufferView":2,"byteOffset":3767280,"componentType":5126,"count":120192,"type":"VEC2","name":"accessorUVs"},{"bufferView":0,"byteOffset":1882680,"componentType":5123,"count":2988,"type":"SCALAR","name":"accessorIndices"},{"bufferView":1,"byteOffset":14316336,"componentType":5126,"count":2988,"max":[-0.299744874,0.0616048463,-0.8388226],"min":[-0.422983646,0.03374161,-1.048221],"type":"VEC3","name":"accessorPositions"},{"bufferView":1,"byteOffset":14352192,"componentType":5126,"count":2988,"type":"VEC3","name":"accessorNormals"},{"bufferView":2,"byteOffset":4728816,"componentType":5126,"count":2988,"type":"VEC2","name":"accessorUVs"},{"bufferView":0,"byteOffset":1888656,"componentType":5123,"count":19926,"type":"SCALAR","name":"accessorIndices"},{"bufferView":1,"byteOffset":14388048,"componentType":5126,"count":19926,"max":[0.422914028,0.387040466,-1.00243032],"min":[0.227272183,-0.2917068,-1.1327647],"type":"VEC3","name":"accessorPositions"},{"bufferView":1,"byteOffset":14627160,"componentType":5126,"count":19926,"type":"VEC3","name":"accessorNormals"},{"bufferView":2,"byteOffset":4752720,"componentType":5126,"count":19926,"type":"VEC2","name":"accessorUVs"},{"bufferView":0,"byteOffset":1928508,"componentType":5123,"count":2880,"type":"SCALAR","name":"accessorIndices"},{"bufferView":1,"byteOffset":14866272,"componentType":5126,"count":2880,"max":[0.156378418,0.158637419,-0.412017435],"min":[0.1321565,-0.120058887,-0.4304505],"type":"VEC3","name":"accessorPositions"},{"bufferView":1,"byteOffset":14900832,"componentType":5126,"count":2880,"type":"VEC3","name":"accessorNormals"},{"bufferView":2,"byteOffset":4912128,"componentType":5126,"count":2880,"type":"VEC2","name":"accessorUVs"},{"bufferView":0,"byteOffset":1934268,"componentType":5123,"count":14232,"type":"SCALAR","name":"accessorIndices"},{"bufferView":1,"byteOffset":14935392,"componentType":5126,"count":14232,"max":[0.180272371,0.1155281,-0.39846307],"min":[0.157100827,-0.154904544,-0.42097795],"type":"VEC3","name":"accessorPositions"},{"bufferView":1,"byteOffset":15106176,"componentType":5126,"count":14232,"type":"VEC3","name":"accessorNormals"},{"bufferView":2,"byteOffset":4935168,"componentType":5126,"count":14232,"type":"VEC2","name":"accessorUVs"},{"bufferView":0,"byteOffset":1962732,"componentType":5123,"count":10680,"type":"SCALAR","name":"accessorIndices"},{"bufferView":1,"byteOffset":15276960,"componentType":5126,"count":10680,"max":[0.22215718,0.09371364,-0.309113115],"min":[0.124333717,-0.0470399633,-0.4223828],"type":"VEC3","name":"accessorPositions"},{"bufferView":1,"byteOffset":15405120,"componentType":5126,"count":10680,"type":"VEC3","name":"accessorNormals"},{"bufferView":3,"componentType":5126,"count":180,"max":[6.66666651],"min":[0.0],"type":"SCALAR","name":"accessorAnimationInput"},{"bufferView":4,"componentType":5126,"count":180,"type":"VEC4","name":"accessorAnimationRotations"},{"bufferView":3,"byteOffset":720,"componentType":5126,"count":119,"max":[6.66666651],"min":[0.0],"type":"SCALAR","name":"accessorAnimationInput"},{"bufferView":4,"byteOffset":2880,"componentType":5126,"count":119,"type":"VEC4","name":"accessorAnimationRotations"},{"bufferView":3,"byteOffset":1196,"componentType":5126,"count":139,"max":[6.66666651],"min":[0.0],"type":"SCALAR","name":"accessorAnimationInput"},{"bufferView":4,"byteOffset":4784,"componentType":5126,"count":139,"type":"VEC4","name":"accessorAnimationRotations"},{"bufferView":3,"byteOffset":1752,"componentType":5126,"count":2,"max":[6.66666651],"min":[0.0],"type":"SCALAR","name":"accessorAnimationInput"},{"bufferView":5,"componentType":5126,"count":2,"type":"VEC3","name":"accessorAnimationPositions"},{"bufferView":3,"byteOffset":1760,"componentType":5126,"count":28,"max":[6.66666651],"min":[0.0],"type":"SCALAR","name":"accessorAnimationInput"},{"bufferView":4,"byteOffset":7008,"componentType":5126,"count":28,"type":"VEC4","name":"accessorAnimationRotations"}],"bufferViews":[{"buffer":0,"byteLength":1984092,"name":"bufferViewScalar"},{"buffer":0,"byteOffset":1984092,"byteLength":15533280,"byteStride":12,"name":"bufferViewFloatVec3"},{"buffer":0,"byteOffset":17517372,"byteLength":5049024,"byteStride":8,"name":"bufferViewFloatVec2"},{"buffer":0,"byteOffset":22566396,"byteLength":1872,"name":"bufferViewAnimationFloatScalar"},{"buffer":0,"byteOffset":22568268,"byteLength":7456,"name":"bufferViewAnimationFloatVec4"},{"buffer":0,"byteOffset":22575724,"byteLength":24,"name":"bufferViewAnimationFloatVec3"}],"buffers":[{"uri":"bicycle-2.bin","byteLength":22575748}],"materials":[{"pbrMetallicRoughness":{"baseColorTexture":{"index":0},"metallicFactor":0.0,"roughnessFactor":0.450053632},"name":"01 - Default"},{"pbrMetallicRoughness":{"baseColorTexture":{"index":1},"metallicFactor":0.0,"roughnessFactor":0.450053632},"name":"02 - Default"},{"pbrMetallicRoughness":{"baseColorFactor":[0.09019608,0.09019608,0.09019608,1.0],"metallicFactor":0.0,"roughnessFactor":0.450053632},"name":"03 - Default"},{"pbrMetallicRoughness":{"baseColorFactor":[0.121568628,0.121568628,0.121568628,1.0],"metallicFactor":0.0,"roughnessFactor":0.450053632},"name":"05 - Default"},{"pbrMetallicRoughness":{"baseColorFactor":[0.9254902,0.9254902,0.9254902,1.0],"metallicFactor":0.0,"roughnessFactor":0.450053632},"name":"06 - Default"},{"pbrMetallicRoughness":{"baseColorFactor":[0.490196079,0.05882353,0.129411772,1.0],"metallicFactor":0.0,"roughnessFactor":0.450053632},"name":"04 - Default"}],"textures":[{"sampler":0,"source":0,"name":"3d66Model-668941-files-3.jpg"},{"sampler":0,"source":1,"name":"3d66Model-668941-files-22.jpg"}],"images":[{"uri":"./3d66Model-668941-files-3.jpg"},{"uri":"./3d66Model-668941-files-22.jpg"}],"samplers":[{"magFilter":9729,"minFilter":9987}],"animations":[{"channels":[{"sampler":0,"target":{"node":3,"path":"rotation"}},{"sampler":1,"target":{"node":7,"path":"rotation"}},{"sampler":2,"target":{"node":16,"path":"rotation"}},{"sampler":3,"target":{"node":21,"path":"translation"}},{"sampler":4,"target":{"node":21,"path":"rotation"}}],"samplers":[{"input":90,"output":91},{"input":92,"output":93},{"input":94,"output":95},{"input":96,"output":97},{"input":98,"output":99}],"name":"All Animations"}]}