{"asset":{"version":"2.0","generator":"babylon.js glTF exporter for 3dsmax 2018 v20200527.2"},"scene":0,"scenes":[{"nodes":[0,1]}],"nodes":[{"mesh":0,"translation":[0.0,2.4283545,0.0],"rotation":[0.0,-1.0,0.0,1.94707184E-07],"scale":[5.18474054,5.18474054,5.18474054],"name":"Obj3d66-586552-4-781"},{"name":"Default light"}],"meshes":[{"primitives":[{"attributes":{"POSITION":1,"NORMAL":2,"TEXCOORD_0":3,"TEXCOORD_1":4},"indices":0}],"name":"Obj3d66-586552-4-781"}],"accessors":[{"bufferView":0,"componentType":5125,"count":99609,"type":"SCALAR","name":"accessorIndices"},{"bufferView":1,"componentType":5126,"count":99609,"max":[1.07655692,2.10801315,2.24743342],"min":[-1.185271,-0.7515707,-3.77200913],"type":"VEC3","name":"accessorPositions"},{"bufferView":1,"byteOffset":1195308,"componentType":5126,"count":99609,"type":"VEC3","name":"accessorNormals"},{"bufferView":2,"componentType":5126,"count":99609,"type":"VEC2","name":"accessorUVs"},{"bufferView":2,"byteOffset":796872,"componentType":5126,"count":99609,"type":"VEC2","name":"accessorUV2s"}],"bufferViews":[{"buffer":0,"byteLength":398436,"name":"bufferViewScalar"},{"buffer":0,"byteOffset":398436,"byteLength":2390616,"byteStride":12,"name":"bufferViewFloatVec3"},{"buffer":0,"byteOffset":2789052,"byteLength":1593744,"byteStride":8,"name":"bufferViewFloatVec2"}],"buffers":[{"uri":"car.bin","byteLength":4382796}]}