{"asset":{"version":"2.0","generator":"babylon.js glTF exporter for 3dsmax 2018 v20200527.2"},"scene":0,"scenes":[{"nodes":[0,1,2,3,4]}],"nodes":[{"mesh":0,"translation":[-7.25616264,-9.854046,0.3181672],"scale":[10.2493,18.0296059,9.64475],"name":"Tube001"},{"mesh":1,"translation":[-6.950764,-11.145937,0.315113276],"scale":[10.74511,10.74511,10.74511],"name":"Cylinder001"},{"mesh":2,"translation":[10.25392,11.08187,-0.418126047],"rotation":[0.7071068,0.0,0.0,0.7071067],"scale":[10.2493,10.2493,10.2493],"name":"Torus002"},{"mesh":3,"translation":[7.080741,-0.9285327,-0.372495562],"rotation":[0.7071068,0.0,0.0,0.7071067],"scale":[10.2493,10.2493,10.2493],"name":"Torus003"},{"name":"Default light"}],"meshes":[{"primitives":[{"attributes":{"POSITION":1,"NORMAL":2,"TEXCOORD_0":3},"indices":0,"material":0}],"name":"Tube001"},{"primitives":[{"attributes":{"POSITION":5,"NORMAL":6,"TEXCOORD_0":7},"indices":4,"material":1}],"name":"Cylinder001"},{"primitives":[{"attributes":{"POSITION":9,"NORMAL":10,"TEXCOORD_0":11},"indices":8,"material":1}],"name":"Torus002"},{"primitives":[{"attributes":{"POSITION":13,"NORMAL":14,"TEXCOORD_0":15},"indices":12,"material":1}],"name":"Torus003"}],"accessors":[{"bufferView":0,"componentType":5123,"count":1296,"type":"SCALAR","name":"accessorIndices"},{"bufferView":1,"componentType":5126,"count":1296,"max":[0.9365303,1.61126184,0.950977743],"min":[-0.9365303,0.0,-0.950977743],"type":"VEC3","name":"accessorPositions"},{"bufferView":1,"byteOffset":15552,"componentType":5126,"count":1296,"type":"VEC3","name":"accessorNormals"},{"bufferView":2,"componentType":5126,"count":1296,"type":"VEC2","name":"accessorUVs"},{"bufferView":0,"byteOffset":2592,"componentType":5123,"count":648,"type":"SCALAR","name":"accessorIndices"},{"bufferView":1,"byteOffset":31104,"componentType":5126,"count":648,"max":[0.9439429,0.108508006,0.9296024],"min":[-0.9439429,0.0,-0.9296023],"type":"VEC3","name":"accessorPositions"},{"bufferView":1,"byteOffset":38880,"componentType":5126,"count":648,"type":"VEC3","name":"accessorNormals"},{"bufferView":2,"byteOffset":10368,"componentType":5126,"count":648,"type":"VEC2","name":"accessorUVs"},{"bufferView":0,"byteOffset":3888,"componentType":5123,"count":1728,"type":"SCALAR","name":"accessorIndices"},{"bufferView":1,"byteOffset":46656,"componentType":5126,"count":1728,"max":[0.8047774,0.04727154,0.8047774],"min":[-0.8047774,-0.04727154,-0.8047774],"type":"VEC3","name":"accessorPositions"},{"bufferView":1,"byteOffset":67392,"componentType":5126,"count":1728,"type":"VEC3","name":"accessorNormals"},{"bufferView":2,"byteOffset":15552,"componentType":5126,"count":1728,"type":"VEC2","name":"accessorUVs"},{"bufferView":0,"byteOffset":7344,"componentType":5123,"count":1728,"type":"SCALAR","name":"accessorIndices"},{"bufferView":1,"byteOffset":88128,"componentType":5126,"count":1728,"max":[0.476766258,0.0512199961,0.476766258],"min":[-0.476766258,-0.0512199961,-0.476766258],"type":"VEC3","name":"accessorPositions"},{"bufferView":1,"byteOffset":108864,"componentType":5126,"count":1728,"type":"VEC3","name":"accessorNormals"},{"bufferView":2,"byteOffset":29376,"componentType":5126,"count":1728,"type":"VEC2","name":"accessorUVs"}],"bufferViews":[{"buffer":0,"byteLength":10800,"name":"bufferViewScalar"},{"buffer":0,"byteOffset":10800,"byteLength":129600,"byteStride":12,"name":"bufferViewFloatVec3"},{"buffer":0,"byteOffset":140400,"byteLength":43200,"byteStride":8,"name":"bufferViewFloatVec2"}],"buffers":[{"uri":"cup.bin","byteLength":183600}],"materials":[{"pbrMetallicRoughness":{"baseColorTexture":{"index":0},"metallicFactor":0.0,"roughnessFactor":0.450053632},"name":"01 - Default"},{"pbrMetallicRoughness":{"baseColorFactor":[0.211764708,0.1882353,0.3137255,1.0],"metallicFactor":0.0,"roughnessFactor":0.450053632},"name":"02 - Default"}],"textures":[{"sampler":0,"source":0,"name":"59c05eb8e3449_610.jpg"}],"images":[{"uri":"./59c05eb8e3449_610.jpg"}],"samplers":[{"magFilter":9729,"minFilter":9987}]}