{"asset":{"version":"2.0","generator":"babylon.js glTF exporter for 3dsmax 2018 v20200527.2"},"scene":0,"scenes":[{"nodes":[0,1]}],"nodes":[{"mesh":0,"translation":[-0.06801295,0.0,0.9498947],"scale":[12.59065,12.59065,12.59065],"name":"Text001"},{"name":"Default light"}],"meshes":[{"primitives":[{"attributes":{"POSITION":1,"NORMAL":2},"indices":0}],"name":"Text001"}],"accessors":[{"bufferView":0,"componentType":5123,"count":9708,"type":"SCALAR","name":"accessorIndices"},{"bufferView":1,"componentType":5126,"count":9708,"max":[7.481094,0.508,0.25908],"min":[-7.481094,0.0,-2.09296012],"type":"VEC3","name":"accessorPositions"},{"bufferView":1,"byteOffset":116496,"componentType":5126,"count":9708,"type":"VEC3","name":"accessorNormals"}],"bufferViews":[{"buffer":0,"byteLength":19416,"name":"bufferViewScalar"},{"buffer":0,"byteOffset":19416,"byteLength":232992,"byteStride":12,"name":"bufferViewFloatVec3"}],"buffers":[{"uri":"none.bin","byteLength":252408}]}