{"asset":{"version":"2.0","generator":"babylon.js glTF exporter for 3dsmax 2018 v20200527.2"},"scene":0,"scenes":[{"nodes":[0,1]}],"nodes":[{"mesh":0,"translation":[-0.00173806748,0.0,-0.00173832884],"scale":[46.3854256,46.3854256,46.3854256],"name":"Teapot001"},{"name":"Default light"}],"meshes":[{"primitives":[{"attributes":{"POSITION":1,"NORMAL":2,"TEXCOORD_0":3},"indices":0}],"name":"Teapot001"}],"accessors":[{"bufferView":0,"componentType":5123,"count":3072,"type":"SCALAR","name":"accessorIndices"},{"bufferView":1,"componentType":5126,"count":3072,"max":[0.674156845,0.619462252,0.393309355],"min":[-0.589964032,0.0,-0.393309355],"type":"VEC3","name":"accessorPositions"},{"bufferView":1,"byteOffset":36864,"componentType":5126,"count":3072,"type":"VEC3","name":"accessorNormals"},{"bufferView":2,"componentType":5126,"count":3072,"type":"VEC2","name":"accessorUVs"}],"bufferViews":[{"buffer":0,"byteLength":6144,"name":"bufferViewScalar"},{"buffer":0,"byteOffset":6144,"byteLength":73728,"byteStride":12,"name":"bufferViewFloatVec3"},{"buffer":0,"byteOffset":79872,"byteLength":24576,"byteStride":8,"name":"bufferViewFloatVec2"}],"buffers":[{"uri":"orange.bin","byteLength":104448}]}