{"asset":{"version":"2.0","generator":"babylon.js glTF exporter for 3dsmax 2018 v20200527.2"},"scene":0,"scenes":[{"nodes":[0,24,27]}],"nodes":[{"children":[1,2,6,7,8,9,10,11,12,13,14,15,20],"translation":[-0.08283118,1.39582622,-0.9408179],"rotation":[0.007728852,-0.135494351,-0.07088164,0.9882092],"scale":[24.66251,24.662508,24.6625137],"name":"组001"},{"mesh":0,"translation":[0.197592273,-0.5582627,-0.06512256],"rotation":[-0.394219428,-0.6906168,0.469602674,-0.383552939],"scale":[0.964902163,-1.04436553,0.9649029],"name":"Archmodels55_01_black3"},{"children":[3,4,5],"translation":[0.2835633,-0.311166674,0.5244049],"rotation":[0.123707406,0.2856989,0.9440619,-0.108719073],"scale":[1.00000072,1.00000024,1.0],"name":"右轮胎"},{"mesh":1,"translation":[-0.0130497217,-0.3815743,0.5574904],"rotation":[0.5213337,-0.477714717,0.521334,0.477714062],"scale":[2.53832483,-2.53832221,2.53832173],"name":"右轮胎002"},{"mesh":2,"translation":[-0.0278350916,-0.381574273,0.5574903],"rotation":[-0.521333754,0.4777148,-0.5213334,-0.4777145],"scale":[2.53832483,2.53832436,2.538324],"name":"右轮胎001"},{"mesh":3,"translation":[-0.02766459,-0.381574363,0.5574904],"rotation":[0.5213337,-0.477714717,0.521334,0.477714062],"scale":[2.53832483,-2.53832221,2.53832173],"name":"右轮胎 (1)"},{"mesh":4,"translation":[0.112979755,-0.241211161,0.116454124],"rotation":[-0.461884826,-0.648619,0.374728858,-0.474904418],"scale":[0.964902461,-1.04436612,0.964903533],"name":"脚踏板2"},{"mesh":5,"translation":[0.165685341,-0.5573874,-0.0936933756],"rotation":[-0.394219339,-0.690616846,0.469602644,-0.3835529],"scale":[2.538325,-2.53832245,2.53832245],"name":"Archmodels55_01_chrome2"},{"mesh":6,"translation":[0.1788057,-0.5525073,-0.09845119],"rotation":[-0.39421916,-0.690616965,0.469602644,-0.3835529],"scale":[2.53832626,2.53832364,2.53832436],"name":"Archmodels55_01_chrome"},{"mesh":7,"translation":[0.1870823,-0.5506372,-0.09764601],"rotation":[-0.394219548,-0.6906169,0.469602346,-0.383553028],"scale":[0.9649026,1.04436672,0.9649024],"name":"Archmodels55_01_carpaint"},{"mesh":8,"translation":[0.237320587,-0.631774962,0.198594257],"rotation":[0.2077275,-0.297883362,0.9293205,-0.0669189543],"scale":[2.538325,-2.538328,2.53832746],"name":"Archmodels55_01_chain"},{"mesh":9,"translation":[0.0484626368,-0.4761823,-0.4443399],"rotation":[-0.394218981,-0.690616965,0.469602734,-0.383553028],"scale":[2.5383265,2.53832245,2.53832245],"name":"Archmodels55_01_black5"},{"mesh":10,"translation":[0.226422638,-0.5674172,-0.0129589885],"rotation":[-0.394219428,-0.6906168,0.4696026,-0.383552939],"scale":[2.53832555,-2.53832316,2.538323],"name":"Archmodels55_01_black4"},{"mesh":11,"translation":[0.161663339,-0.5440191,-0.1390596],"rotation":[-0.394219428,-0.6906168,0.469602674,-0.383552939],"scale":[0.964902163,-1.04436553,0.9649029],"name":"Archmodels55_01_black2"},{"mesh":12,"translation":[0.178654283,-0.552563548,-0.0983969942],"rotation":[-0.394219428,-0.6906168,0.4696026,-0.383552939],"scale":[2.53832555,-2.53832316,2.538323],"name":"Archmodels55_01_black"},{"children":[16,17,18,19],"translation":[-0.151292726,0.4673506,-0.0763667],"rotation":[0.3497185,0.256168,0.03954653,0.9002839],"scale":[0.99999994,1.0,1.0],"name":"把手"},{"mesh":13,"translation":[0.0448599346,-0.7677775,0.7302369],"rotation":[0.368382633,0.343678147,-0.578478754,0.6415153],"scale":[0.964902,-1.04436541,0.964902759],"name":"把手 (1)"},{"mesh":14,"translation":[0.03979755,-0.7459415,0.769130945],"rotation":[0.368382841,0.3436783,-0.5784788,0.6415151],"scale":[2.538325,-2.53832364,2.53832316],"name":"把手2"},{"mesh":15,"translation":[0.0403834172,-0.696427763,0.854863346],"rotation":[0.368382841,0.3436783,-0.5784788,0.6415151],"scale":[2.538325,-2.53832364,2.53832316],"name":"把手的线"},{"mesh":16,"translation":[0.03996654,-0.7459183,0.7691365],"rotation":[0.368382215,0.343678772,-0.57847923,0.6415149],"scale":[2.53832555,2.53832316,2.538324],"name":"把手003"},{"children":[21,22,23],"translation":[-0.147775427,-0.0974258,-0.481378466],"rotation":[0.129267365,-0.9122075,-0.142493978,0.361749977],"scale":[0.9999998,1.0,1.00000083],"name":"做轮胎"},{"mesh":17,"translation":[-0.00157254038,-0.386424571,-0.5574905],"rotation":[0.521333754,-0.477714777,0.521333933,0.4777141],"scale":[2.53832459,-2.538322,2.53832221],"name":"轮胎3"},{"mesh":18,"translation":[-0.0163579118,-0.386424571,-0.557490647],"rotation":[-0.5213337,0.477714747,-0.521333635,-0.477714449],"scale":[2.538325,2.538323,2.53832459],"name":"轮胎2"},{"mesh":19,"translation":[-0.0161874555,-0.386424571,-0.5574906],"rotation":[0.521333754,-0.477714777,0.521333933,0.4777141],"scale":[2.53832459,-2.538322,2.53832221],"name":"轮胎"},{"children":[25,26],"translation":[-0.08283118,-12.7689371,-0.9408179],"scale":[142.905182,33.1654243,142.905182],"name":"道路"},{"mesh":20,"translation":[0.3017041,0.00739999441,0.0],"name":"Obj3d66-447048-6-706"},{"mesh":21,"translation":[-9.765625E-07,0.0,0.0],"name":"Obj3d66-447048-5-814"},{"name":"Default light"}],"meshes":[{"primitives":[{"attributes":{"POSITION":1,"NORMAL":2,"TEXCOORD_0":3},"indices":0}],"name":"Archmodels55_01_black3"},{"primitives":[{"attributes":{"POSITION":5,"NORMAL":6,"TEXCOORD_0":7},"indices":4,"material":0}],"name":"右轮胎002"},{"primitives":[{"attributes":{"POSITION":9,"NORMAL":10,"TEXCOORD_0":11},"indices":8}],"name":"右轮胎001"},{"primitives":[{"attributes":{"POSITION":13,"NORMAL":14,"TEXCOORD_0":15},"indices":12}],"name":"右轮胎"},{"primitives":[{"attributes":{"POSITION":17,"NORMAL":18,"TEXCOORD_0":19},"indices":16}],"name":"脚踏板2"},{"primitives":[{"attributes":{"POSITION":21,"NORMAL":22,"TEXCOORD_0":23},"indices":20,"material":0}],"name":"Archmodels55_01_chrome2"},{"primitives":[{"attributes":{"POSITION":25,"NORMAL":26,"TEXCOORD_0":27},"indices":24}],"name":"Archmodels55_01_chrome"},{"primitives":[{"attributes":{"POSITION":29,"NORMAL":30,"TEXCOORD_0":31},"indices":28}],"name":"Archmodels55_01_carpaint"},{"primitives":[{"attributes":{"POSITION":33,"NORMAL":34,"TEXCOORD_0":35},"indices":32}],"name":"Archmodels55_01_chain"},{"primitives":[{"attributes":{"POSITION":37,"NORMAL":38,"TEXCOORD_0":39},"indices":36,"material":1}],"name":"Archmodels55_01_black5"},{"primitives":[{"attributes":{"POSITION":41,"NORMAL":42},"indices":40}],"name":"Archmodels55_01_black4"},{"primitives":[{"attributes":{"POSITION":44,"NORMAL":45,"TEXCOORD_0":46},"indices":43}],"name":"Archmodels55_01_black2"},{"primitives":[{"attributes":{"POSITION":48,"NORMAL":49,"TEXCOORD_0":50},"indices":47}],"name":"Archmodels55_01_black"},{"primitives":[{"attributes":{"POSITION":52,"NORMAL":53,"TEXCOORD_0":54},"indices":51}],"name":"把手"},{"primitives":[{"attributes":{"POSITION":56,"NORMAL":57,"TEXCOORD_0":58},"indices":55}],"name":"把手2"},{"primitives":[{"attributes":{"POSITION":60,"NORMAL":61},"indices":59}],"name":"把手的线"},{"primitives":[{"attributes":{"POSITION":63,"NORMAL":64,"TEXCOORD_0":65},"indices":62}],"name":"把手003"},{"primitives":[{"attributes":{"POSITION":67,"NORMAL":68,"TEXCOORD_0":69},"indices":66,"material":0}],"name":"轮胎3"},{"primitives":[{"attributes":{"POSITION":71,"NORMAL":72,"TEXCOORD_0":73},"indices":70}],"name":"轮胎2"},{"primitives":[{"attributes":{"POSITION":75,"NORMAL":76,"TEXCOORD_0":77},"indices":74}],"name":"轮胎"},{"primitives":[{"attributes":{"POSITION":79,"NORMAL":80,"TEXCOORD_0":81},"indices":78}],"name":"Obj3d66-447048-6-706"},{"primitives":[{"attributes":{"POSITION":83,"NORMAL":84,"TEXCOORD_0":85},"indices":82}],"name":"Obj3d66-447048-5-814"}],"accessors":[{"bufferView":0,"componentType":5123,"count":17076,"type":"SCALAR","name":"accessorIndices"},{"bufferView":1,"componentType":5126,"count":17076,"max":[0.5657579,0.13205491,-0.293953747],"min":[-0.5657579,-0.02506917,-1.0868963],"type":"VEC3","name":"accessorPositions"},{"bufferView":1,"byteOffset":204912,"componentType":5126,"count":17076,"type":"VEC3","name":"accessorNormals"},{"bufferView":2,"componentType":5126,"count":17076,"type":"VEC2","name":"accessorUVs"},{"bufferView":0,"byteOffset":34152,"componentType":5123,"count":6090,"type":"SCALAR","name":"accessorIndices"},{"bufferView":1,"byteOffset":409824,"componentType":5126,"count":6090,"max":[-0.103372373,0.0209466182,-0.0334277749],"min":[-0.33588624,0.006824908,-0.26594165],"type":"VEC3","name":"accessorPositions"},{"bufferView":1,"byteOffset":482904,"componentType":5126,"count":6090,"type":"VEC3","name":"accessorNormals"},{"bufferView":2,"byteOffset":136608,"componentType":5126,"count":6090,"type":"VEC2","name":"accessorUVs"},{"bufferView":0,"byteOffset":46332,"componentType":5123,"count":19602,"type":"SCALAR","name":"accessorIndices"},{"bufferView":1,"byteOffset":555984,"componentType":5126,"count":19602,"max":[-0.099550575,-0.007904316,-0.0290983282],"min":[-0.33970806,-0.05048169,-0.269255847],"type":"VEC3","name":"accessorPositions"},{"bufferView":1,"byteOffset":791208,"componentType":5126,"count":19602,"type":"VEC3","name":"accessorNormals"},{"bufferView":2,"byteOffset":185328,"componentType":5126,"count":19602,"type":"VEC2","name":"accessorUVs"},{"bufferView":0,"byteOffset":85536,"componentType":5125,"count":120192,"type":"SCALAR","name":"accessorIndices"},{"bufferView":1,"byteOffset":1026432,"componentType":5126,"count":120192,"max":[-0.0809502,0.0315396227,-0.0105038],"min":[-0.358308375,0.007703339,-0.287861973],"type":"VEC3","name":"accessorPositions"},{"bufferView":1,"byteOffset":2468736,"componentType":5126,"count":120192,"type":"VEC3","name":"accessorNormals"},{"bufferView":2,"byteOffset":342144,"componentType":5126,"count":120192,"type":"VEC2","name":"accessorUVs"},{"bufferView":0,"byteOffset":566304,"componentType":5123,"count":36054,"type":"SCALAR","name":"accessorIndices"},{"bufferView":1,"byteOffset":3911040,"componentType":5126,"count":36054,"max":[0.1593067,0.151507214,0.150044128],"min":[-0.156854525,-0.16372101,-0.309446245],"type":"VEC3","name":"accessorPositions"},{"bufferView":1,"byteOffset":4343688,"componentType":5126,"count":36054,"type":"VEC3","name":"accessorNormals"},{"bufferView":2,"byteOffset":1303680,"componentType":5126,"count":36054,"type":"VEC2","name":"accessorUVs"},{"bufferView":0,"byteOffset":638412,"componentType":5123,"count":54528,"type":"SCALAR","name":"accessorIndices"},{"bufferView":1,"byteOffset":4776336,"componentType":5126,"count":54528,"max":[0.3331398,0.0477198139,-0.03617409],"min":[-0.333139926,-0.0161100365,-0.327873439],"type":"VEC3","name":"accessorPositions"},{"bufferView":1,"byteOffset":5430672,"componentType":5126,"count":54528,"type":"VEC3","name":"accessorNormals"},{"bufferView":2,"byteOffset":1592112,"componentType":5126,"count":54528,"type":"VEC2","name":"accessorUVs"},{"bufferView":0,"byteOffset":747468,"componentType":5123,"count":33666,"type":"SCALAR","name":"accessorIndices"},{"bufferView":1,"byteOffset":6085008,"componentType":5126,"count":33666,"max":[0.2006499,0.0105443178,-0.132753208],"min":[-0.1731837,-0.04992085,-0.40395537],"type":"VEC3","name":"accessorPositions"},{"bufferView":1,"byteOffset":6489000,"componentType":5126,"count":33666,"type":"VEC3","name":"accessorNormals"},{"bufferView":2,"byteOffset":2028336,"componentType":5126,"count":33666,"type":"VEC2","name":"accessorUVs"},{"bufferView":0,"byteOffset":814800,"componentType":5125,"count":104442,"type":"SCALAR","name":"accessorIndices"},{"bufferView":1,"byteOffset":6892992,"componentType":5126,"count":104442,"max":[0.601032138,0.0263523571,-0.34678477],"min":[-0.6010321,-0.136807054,-1.01969159],"type":"VEC3","name":"accessorPositions"},{"bufferView":1,"byteOffset":8146296,"componentType":5126,"count":104442,"type":"VEC3","name":"accessorNormals"},{"bufferView":2,"byteOffset":2297664,"componentType":5126,"count":104442,"type":"VEC2","name":"accessorUVs"},{"bufferView":0,"byteOffset":1232568,"componentType":5123,"count":40536,"type":"SCALAR","name":"accessorIndices"},{"bufferView":1,"byteOffset":9399600,"componentType":5126,"count":40536,"max":[0.0141451377,0.189980835,0.06340597],"min":[0.0100909639,0.0670351163,-0.166782722],"type":"VEC3","name":"accessorPositions"},{"bufferView":1,"byteOffset":9886032,"componentType":5126,"count":40536,"type":"VEC3","name":"accessorNormals"},{"bufferView":2,"byteOffset":3133200,"componentType":5126,"count":40536,"type":"VEC2","name":"accessorUVs"},{"bufferView":0,"byteOffset":1313640,"componentType":5123,"count":1512,"type":"SCALAR","name":"accessorIndices"},{"bufferView":1,"byteOffset":10372464,"componentType":5126,"count":1512,"max":[0.00644216174,0.00274808425,-0.314619958],"min":[-0.00644216174,-0.05848692,-0.322479129],"type":"VEC3","name":"accessorPositions"},{"bufferView":1,"byteOffset":10390608,"componentType":5126,"count":1512,"type":"VEC3","name":"accessorNormals"},{"bufferView":2,"byteOffset":3457488,"componentType":5126,"count":1512,"type":"VEC2","name":"accessorUVs"},{"bufferView":0,"byteOffset":1316664,"componentType":5123,"count":5412,"type":"SCALAR","name":"accessorIndices"},{"bufferView":1,"byteOffset":10408752,"componentType":5126,"count":5412,"max":[-0.02639879,0.0568416938,-0.111099429],"min":[-0.22215718,-0.00042793277,-0.3229602],"type":"VEC3","name":"accessorPositions"},{"bufferView":1,"byteOffset":10473696,"componentType":5126,"count":5412,"type":"VEC3","name":"accessorNormals"},{"bufferView":0,"byteOffset":1327488,"componentType":5123,"count":16020,"type":"SCALAR","name":"accessorIndices"},{"bufferView":1,"byteOffset":10538640,"componentType":5126,"count":16020,"max":[0.422983676,0.12824221,-0.04960584],"min":[-0.422983646,-0.151981741,-1.08979547],"type":"VEC3","name":"accessorPositions"},{"bufferView":1,"byteOffset":10730880,"componentType":5126,"count":16020,"type":"VEC3","name":"accessorNormals"},{"bufferView":2,"byteOffset":3469584,"componentType":5126,"count":16020,"type":"VEC2","name":"accessorUVs"},{"bufferView":0,"byteOffset":1359528,"componentType":5123,"count":4104,"type":"SCALAR","name":"accessorIndices"},{"bufferView":1,"byteOffset":10923120,"componentType":5126,"count":4104,"max":[-0.07020417,0.0503604449,-0.399158031],"min":[-0.1869931,-0.0112354718,-0.420422584],"type":"VEC3","name":"accessorPositions"},{"bufferView":1,"byteOffset":10972368,"componentType":5126,"count":4104,"type":"VEC3","name":"accessorNormals"},{"bufferView":2,"byteOffset":3597744,"componentType":5126,"count":4104,"type":"VEC2","name":"accessorUVs"},{"bufferView":0,"byteOffset":1367736,"componentType":5123,"count":19926,"type":"SCALAR","name":"accessorIndices"},{"bufferView":1,"byteOffset":11021616,"componentType":5126,"count":19926,"max":[0.422914028,0.387040466,-1.00243032],"min":[0.227272183,-0.2917068,-1.1327647],"type":"VEC3","name":"accessorPositions"},{"bufferView":1,"byteOffset":11260728,"componentType":5126,"count":19926,"type":"VEC3","name":"accessorNormals"},{"bufferView":2,"byteOffset":3630576,"componentType":5126,"count":19926,"type":"VEC2","name":"accessorUVs"},{"bufferView":0,"byteOffset":1407588,"componentType":5123,"count":2880,"type":"SCALAR","name":"accessorIndices"},{"bufferView":1,"byteOffset":11499840,"componentType":5126,"count":2880,"max":[0.156378418,0.158637419,-0.412017435],"min":[0.1321565,-0.120058887,-0.4304505],"type":"VEC3","name":"accessorPositions"},{"bufferView":1,"byteOffset":11534400,"componentType":5126,"count":2880,"type":"VEC3","name":"accessorNormals"},{"bufferView":2,"byteOffset":3789984,"componentType":5126,"count":2880,"type":"VEC2","name":"accessorUVs"},{"bufferView":0,"byteOffset":1413348,"componentType":5123,"count":10680,"type":"SCALAR","name":"accessorIndices"},{"bufferView":1,"byteOffset":11568960,"componentType":5126,"count":10680,"max":[0.22215718,0.09371364,-0.309113115],"min":[0.124333717,-0.0470399633,-0.4223828],"type":"VEC3","name":"accessorPositions"},{"bufferView":1,"byteOffset":11697120,"componentType":5126,"count":10680,"type":"VEC3","name":"accessorNormals"},{"bufferView":0,"byteOffset":1434708,"componentType":5123,"count":14232,"type":"SCALAR","name":"accessorIndices"},{"bufferView":1,"byteOffset":11825280,"componentType":5126,"count":14232,"max":[0.180272371,0.1155281,-0.39846307],"min":[0.157100827,-0.154904544,-0.42097795],"type":"VEC3","name":"accessorPositions"},{"bufferView":1,"byteOffset":11996064,"componentType":5126,"count":14232,"type":"VEC3","name":"accessorNormals"},{"bufferView":2,"byteOffset":3813024,"componentType":5126,"count":14232,"type":"VEC2","name":"accessorUVs"},{"bufferView":0,"byteOffset":1463172,"componentType":5123,"count":5760,"type":"SCALAR","name":"accessorIndices"},{"bufferView":1,"byteOffset":12166848,"componentType":5126,"count":5760,"max":[0.3358862,0.0209465753,-0.0353460722],"min":[0.103372291,0.0068248664,-0.267859936],"type":"VEC3","name":"accessorPositions"},{"bufferView":1,"byteOffset":12235968,"componentType":5126,"count":5760,"type":"VEC3","name":"accessorNormals"},{"bufferView":2,"byteOffset":3926880,"componentType":5126,"count":5760,"type":"VEC2","name":"accessorUVs"},{"bufferView":0,"byteOffset":1474692,"componentType":5123,"count":12540,"type":"SCALAR","name":"accessorIndices"},{"bufferView":1,"byteOffset":12305088,"componentType":5126,"count":12540,"max":[0.339707971,-0.00790435448,-0.0310166329],"min":[0.0995504856,-0.03147221,-0.2711741],"type":"VEC3","name":"accessorPositions"},{"bufferView":1,"byteOffset":12455568,"componentType":5126,"count":12540,"type":"VEC3","name":"accessorNormals"},{"bufferView":2,"byteOffset":3972960,"componentType":5126,"count":12540,"type":"VEC2","name":"accessorUVs"},{"bufferView":0,"byteOffset":1499772,"componentType":5125,"count":120192,"type":"SCALAR","name":"accessorIndices"},{"bufferView":1,"byteOffset":12606048,"componentType":5126,"count":120192,"max":[0.358308375,0.031539578,-0.0124220736],"min":[0.0809502,0.00770329544,-0.2897803],"type":"VEC3","name":"accessorPositions"},{"bufferView":1,"byteOffset":14048352,"componentType":5126,"count":120192,"type":"VEC3","name":"accessorNormals"},{"bufferView":2,"byteOffset":4073280,"componentType":5126,"count":120192,"type":"VEC2","name":"accessorUVs"},{"bufferView":0,"byteOffset":1980540,"componentType":5123,"count":888,"type":"SCALAR","name":"accessorIndices"},{"bufferView":1,"byteOffset":15490656,"componentType":5126,"count":888,"max":[-0.23242189,0.008600001,0.219999984],"min":[-0.370985866,-0.0234000012,-0.22],"type":"VEC3","name":"accessorPositions"},{"bufferView":1,"byteOffset":15501312,"componentType":5126,"count":888,"type":"VEC3","name":"accessorNormals"},{"bufferView":2,"byteOffset":5034816,"componentType":5126,"count":888,"type":"VEC2","name":"accessorUVs"},{"bufferView":0,"byteOffset":1982316,"componentType":5123,"count":888,"type":"SCALAR","name":"accessorIndices"},{"bufferView":1,"byteOffset":15511968,"componentType":5126,"count":888,"max":[0.138563976,0.016,0.09999997],"min":[-0.138563484,-0.016,-0.1],"type":"VEC3","name":"accessorPositions"},{"bufferView":1,"byteOffset":15522624,"componentType":5126,"count":888,"type":"VEC3","name":"accessorNormals"},{"bufferView":2,"byteOffset":5041920,"componentType":5126,"count":888,"type":"VEC2","name":"accessorUVs"},{"bufferView":3,"componentType":5126,"count":8,"max":[6.66666651],"min":[0.0],"type":"SCALAR","name":"accessorAnimationInput"},{"bufferView":4,"componentType":5126,"count":8,"type":"VEC4","name":"accessorAnimationRotations"},{"bufferView":3,"byteOffset":32,"componentType":5126,"count":179,"max":[6.66666651],"min":[0.0],"type":"SCALAR","name":"accessorAnimationInput"},{"bufferView":4,"byteOffset":128,"componentType":5126,"count":179,"type":"VEC4","name":"accessorAnimationRotations"},{"bufferView":3,"byteOffset":748,"componentType":5126,"count":117,"max":[6.66666651],"min":[0.0],"type":"SCALAR","name":"accessorAnimationInput"},{"bufferView":4,"byteOffset":2992,"componentType":5126,"count":117,"type":"VEC4","name":"accessorAnimationRotations"},{"bufferView":3,"byteOffset":1216,"componentType":5126,"count":32,"max":[6.66666651],"min":[0.0],"type":"SCALAR","name":"accessorAnimationInput"},{"bufferView":4,"byteOffset":4864,"componentType":5126,"count":32,"type":"VEC4","name":"accessorAnimationRotations"},{"bufferView":3,"byteOffset":1344,"componentType":5126,"count":143,"max":[6.66666651],"min":[0.0],"type":"SCALAR","name":"accessorAnimationInput"},{"bufferView":4,"byteOffset":5376,"componentType":5126,"count":143,"type":"VEC4","name":"accessorAnimationRotations"}],"bufferViews":[{"buffer":0,"byteLength":1984092,"name":"bufferViewScalar"},{"buffer":0,"byteOffset":1984092,"byteLength":15533280,"byteStride":12,"name":"bufferViewFloatVec3"},{"buffer":0,"byteOffset":17517372,"byteLength":5049024,"byteStride":8,"name":"bufferViewFloatVec2"},{"buffer":0,"byteOffset":22566396,"byteLength":1916,"name":"bufferViewAnimationFloatScalar"},{"buffer":0,"byteOffset":22568312,"byteLength":7664,"name":"bufferViewAnimationFloatVec4"}],"buffers":[{"uri":"bicycle.bin","byteLength":22575976}],"materials":[{"pbrMetallicRoughness":{"baseColorFactor":[0.258823544,0.258823544,0.258823544,1.0],"metallicFactor":0.0,"roughnessFactor":0.5},"name":"chrome"},{"pbrMetallicRoughness":{"baseColorFactor":[0.196078449,0.196078449,0.196078449,1.0],"metallicFactor":0.0,"roughnessFactor":0.8},"name":"plastic_black","extras":{"enableLightDispersion":false,"abbeNumber":50.0,"nd":4.0,"attenuation":100.0}}],"animations":[{"channels":[{"sampler":0,"target":{"node":0,"path":"rotation"}},{"sampler":1,"target":{"node":2,"path":"rotation"}},{"sampler":2,"target":{"node":6,"path":"rotation"}},{"sampler":3,"target":{"node":15,"path":"rotation"}},{"sampler":4,"target":{"node":20,"path":"rotation"}}],"samplers":[{"input":86,"output":87},{"input":88,"output":89},{"input":90,"output":91},{"input":92,"output":93},{"input":94,"output":95}],"name":"All Animations"}]}